<mxfile host="Electron" modified="2025-04-17T16:12:23.781Z" agent="Mozilla/5.0 (Macintosh; Intel Mac OS X 10_15_7) AppleWebKit/537.36 (KHTML, like Gecko) draw.io/22.1.2 Chrome/114.0.5735.289 Electron/25.9.4 Safari/537.36" etag="kyFxt8rqYwTgHcJOFiSJ" version="22.1.2" type="device">
  <diagram name="Page-1" id="nIJQFnXo-cBNGtQzHQ0u">
    <mxGraphModel dx="1591" dy="1131" grid="1" gridSize="10" guides="1" tooltips="1" connect="1" arrows="1" fold="1" page="1" pageScale="1" pageWidth="827" pageHeight="1169" math="0" shadow="0">
      <root>
        <mxCell id="0" />
        <mxCell id="1" parent="0" />
        <mxCell id="lZzl2Czy9CzeRjuxZHVc-9" style="edgeStyle=orthogonalEdgeStyle;rounded=0;orthogonalLoop=1;jettySize=auto;html=1;" edge="1" parent="1" source="lZzl2Czy9CzeRjuxZHVc-4" target="lZzl2Czy9CzeRjuxZHVc-5">
          <mxGeometry relative="1" as="geometry" />
        </mxCell>
        <mxCell id="lZzl2Czy9CzeRjuxZHVc-12" style="edgeStyle=orthogonalEdgeStyle;rounded=0;orthogonalLoop=1;jettySize=auto;html=1;entryX=0.5;entryY=0;entryDx=0;entryDy=0;dashed=1;dashPattern=8 8;" edge="1" parent="1" source="lZzl2Czy9CzeRjuxZHVc-4" target="lZzl2Czy9CzeRjuxZHVc-11">
          <mxGeometry relative="1" as="geometry" />
        </mxCell>
        <mxCell id="lZzl2Czy9CzeRjuxZHVc-4" value="&lt;div style=&quot;text-align: left;&quot;&gt;&lt;span style=&quot;background-color: initial;&quot;&gt;@main&lt;/span&gt;&lt;/div&gt;&lt;div style=&quot;text-align: left;&quot;&gt;&lt;span style=&quot;background-color: initial;&quot;&gt;struct Main: App {}&lt;/span&gt;&lt;/div&gt;" style="rounded=1;whiteSpace=wrap;html=1;" vertex="1" parent="1">
          <mxGeometry x="330" y="200" width="120" height="60" as="geometry" />
        </mxCell>
        <mxCell id="lZzl2Czy9CzeRjuxZHVc-20" style="edgeStyle=orthogonalEdgeStyle;rounded=0;orthogonalLoop=1;jettySize=auto;html=1;entryX=0;entryY=0.5;entryDx=0;entryDy=0;" edge="1" parent="1" source="lZzl2Czy9CzeRjuxZHVc-5" target="lZzl2Czy9CzeRjuxZHVc-8">
          <mxGeometry relative="1" as="geometry">
            <Array as="points">
              <mxPoint x="130" y="400" />
              <mxPoint x="130" y="90" />
            </Array>
          </mxGeometry>
        </mxCell>
        <mxCell id="lZzl2Czy9CzeRjuxZHVc-21" value="User interaction sends event" style="edgeLabel;html=1;align=center;verticalAlign=middle;resizable=0;points=[];" vertex="1" connectable="0" parent="lZzl2Czy9CzeRjuxZHVc-20">
          <mxGeometry x="-0.3441" y="-3" relative="1" as="geometry">
            <mxPoint as="offset" />
          </mxGeometry>
        </mxCell>
        <mxCell id="lZzl2Czy9CzeRjuxZHVc-24" style="edgeStyle=orthogonalEdgeStyle;rounded=0;orthogonalLoop=1;jettySize=auto;html=1;entryX=0;entryY=0.333;entryDx=0;entryDy=0;entryPerimeter=0;" edge="1" parent="1" source="lZzl2Czy9CzeRjuxZHVc-5" target="lZzl2Czy9CzeRjuxZHVc-6">
          <mxGeometry relative="1" as="geometry">
            <Array as="points">
              <mxPoint x="350" y="390" />
              <mxPoint x="350" y="390" />
            </Array>
          </mxGeometry>
        </mxCell>
        <mxCell id="lZzl2Czy9CzeRjuxZHVc-25" value="Reads the viewModel" style="edgeLabel;html=1;align=center;verticalAlign=middle;resizable=0;points=[];" vertex="1" connectable="0" parent="lZzl2Czy9CzeRjuxZHVc-24">
          <mxGeometry x="-0.2988" relative="1" as="geometry">
            <mxPoint x="19" as="offset" />
          </mxGeometry>
        </mxCell>
        <mxCell id="lZzl2Czy9CzeRjuxZHVc-5" value="SwiftUI Views" style="rounded=1;whiteSpace=wrap;html=1;" vertex="1" parent="1">
          <mxGeometry x="170" y="370" width="120" height="60" as="geometry" />
        </mxCell>
        <mxCell id="lZzl2Czy9CzeRjuxZHVc-18" style="edgeStyle=orthogonalEdgeStyle;rounded=0;orthogonalLoop=1;jettySize=auto;html=1;dashed=1;dashPattern=8 8;" edge="1" parent="1" source="lZzl2Czy9CzeRjuxZHVc-6">
          <mxGeometry relative="1" as="geometry">
            <mxPoint x="290" y="410" as="targetPoint" />
            <Array as="points">
              <mxPoint x="290" y="410" />
            </Array>
          </mxGeometry>
        </mxCell>
        <mxCell id="lZzl2Czy9CzeRjuxZHVc-31" style="edgeStyle=orthogonalEdgeStyle;rounded=0;orthogonalLoop=1;jettySize=auto;html=1;entryX=0.664;entryY=0.992;entryDx=0;entryDy=0;entryPerimeter=0;" edge="1" parent="1" source="lZzl2Czy9CzeRjuxZHVc-6" target="lZzl2Czy9CzeRjuxZHVc-11">
          <mxGeometry relative="1" as="geometry">
            <Array as="points">
              <mxPoint x="600" y="340" />
              <mxPoint x="600" y="340" />
            </Array>
          </mxGeometry>
        </mxCell>
        <mxCell id="lZzl2Czy9CzeRjuxZHVc-32" value="Uses the services" style="edgeLabel;html=1;align=center;verticalAlign=middle;resizable=0;points=[];" vertex="1" connectable="0" parent="lZzl2Czy9CzeRjuxZHVc-31">
          <mxGeometry x="-0.2885" y="1" relative="1" as="geometry">
            <mxPoint x="31" y="-9" as="offset" />
          </mxGeometry>
        </mxCell>
        <mxCell id="lZzl2Czy9CzeRjuxZHVc-6" value="&lt;p&gt;@Observable&lt;br&gt;ViewModels&lt;/p&gt;" style="rounded=1;whiteSpace=wrap;html=1;align=center;" vertex="1" parent="1">
          <mxGeometry x="520" y="370" width="120" height="60" as="geometry" />
        </mxCell>
        <mxCell id="lZzl2Czy9CzeRjuxZHVc-22" style="edgeStyle=orthogonalEdgeStyle;rounded=0;orthogonalLoop=1;jettySize=auto;html=1;entryX=1;entryY=0.5;entryDx=0;entryDy=0;" edge="1" parent="1" source="lZzl2Czy9CzeRjuxZHVc-8" target="lZzl2Czy9CzeRjuxZHVc-6">
          <mxGeometry relative="1" as="geometry">
            <Array as="points">
              <mxPoint x="730" y="90" />
              <mxPoint x="730" y="400" />
            </Array>
          </mxGeometry>
        </mxCell>
        <mxCell id="lZzl2Czy9CzeRjuxZHVc-23" value="ViewModel handles event" style="edgeLabel;html=1;align=center;verticalAlign=middle;resizable=0;points=[];" vertex="1" connectable="0" parent="lZzl2Czy9CzeRjuxZHVc-22">
          <mxGeometry x="0.1882" relative="1" as="geometry">
            <mxPoint y="46" as="offset" />
          </mxGeometry>
        </mxCell>
        <mxCell id="lZzl2Czy9CzeRjuxZHVc-8" value="static EventBus" style="rounded=1;whiteSpace=wrap;html=1;" vertex="1" parent="1">
          <mxGeometry x="330" y="60" width="120" height="60" as="geometry" />
        </mxCell>
        <mxCell id="lZzl2Czy9CzeRjuxZHVc-14" style="edgeStyle=orthogonalEdgeStyle;rounded=0;orthogonalLoop=1;jettySize=auto;html=1;dashed=1;dashPattern=8 8;" edge="1" parent="1" source="lZzl2Czy9CzeRjuxZHVc-11" target="lZzl2Czy9CzeRjuxZHVc-6">
          <mxGeometry relative="1" as="geometry">
            <Array as="points">
              <mxPoint x="570" y="340" />
              <mxPoint x="570" y="340" />
            </Array>
          </mxGeometry>
        </mxCell>
        <mxCell id="lZzl2Czy9CzeRjuxZHVc-11" value="Services" style="rounded=1;whiteSpace=wrap;html=1;" vertex="1" parent="1">
          <mxGeometry x="520" y="250" width="120" height="60" as="geometry" />
        </mxCell>
        <mxCell id="lZzl2Czy9CzeRjuxZHVc-27" value="" style="endArrow=none;html=1;rounded=0;dashed=1;dashPattern=8 8;" edge="1" parent="1">
          <mxGeometry width="50" height="50" relative="1" as="geometry">
            <mxPoint x="510" y="40" as="sourcePoint" />
            <mxPoint x="635" y="40" as="targetPoint" />
          </mxGeometry>
        </mxCell>
        <mxCell id="lZzl2Czy9CzeRjuxZHVc-28" value="Dependency injection" style="edgeLabel;html=1;align=center;verticalAlign=middle;resizable=0;points=[];" vertex="1" connectable="0" parent="lZzl2Czy9CzeRjuxZHVc-27">
          <mxGeometry relative="1" as="geometry">
            <mxPoint x="8" y="-13" as="offset" />
          </mxGeometry>
        </mxCell>
        <mxCell id="lZzl2Czy9CzeRjuxZHVc-29" value="" style="endArrow=none;html=1;rounded=0;" edge="1" parent="1">
          <mxGeometry width="50" height="50" relative="1" as="geometry">
            <mxPoint x="510" y="70" as="sourcePoint" />
            <mxPoint x="635" y="70" as="targetPoint" />
          </mxGeometry>
        </mxCell>
        <mxCell id="lZzl2Czy9CzeRjuxZHVc-30" value="Direct interaction" style="edgeLabel;html=1;align=center;verticalAlign=middle;resizable=0;points=[];" vertex="1" connectable="0" parent="lZzl2Czy9CzeRjuxZHVc-29">
          <mxGeometry relative="1" as="geometry">
            <mxPoint x="17" y="-13" as="offset" />
          </mxGeometry>
        </mxCell>
      </root>
    </mxGraphModel>
  </diagram>
</mxfile>
